<svg width="32" height="32" viewBox="0 0 32 32" fill="none" xmlns="http://www.w3.org/2000/svg">
<g id="iCON 7 1" clip-path="url(#clip0_592_1812)">
<g id="Layer 2">
<g id="Layer 1">
<path id="Vector" d="M24.9119 13.4736C24.4641 11.9297 23.6495 10.517 22.5375 9.35618C21.4255 8.1953 20.0492 7.32069 18.5259 6.80696C17.021 6.36892 15.4393 6.26128 13.8889 6.49141C12.3386 6.72154 10.8562 7.28401 9.54348 8.14029C9.43546 8.24854 9.3 8.32532 9.15164 8.36241C9.00329 8.3995 8.84763 8.39549 8.70138 8.35081C8.40652 8.25529 8.14086 8.08624 7.92945 7.85959C7.77554 7.5819 7.72577 7.25841 7.7891 6.94731C7.8293 6.79798 7.89992 6.65857 7.99653 6.53781C8.09313 6.41706 8.21364 6.31756 8.3505 6.24555C12.0698 4.07011 15.7189 3.50871 19.2277 4.63152C20.9551 5.20609 22.5322 6.15967 23.8436 7.42244C25.1549 8.68521 26.1673 10.2252 26.8066 11.9298H31.5084C30.547 8.13746 28.2295 4.82883 24.994 2.62942C21.7585 0.430003 17.8293 -0.50775 13.9492 -0.00654382C10.0692 0.494662 6.50728 2.40009 3.93689 5.34948C1.3665 8.29888 -0.0342008 12.0878 -0.000378028 15.9999C-0.000378028 16.6315 0.0697974 17.1929 0.0697974 17.8245H6.03471C6.26252 17.8116 6.48836 17.873 6.67821 17.9996C6.86806 18.1262 7.01165 18.311 7.08734 18.5263C7.54568 20.0648 8.36401 21.4721 9.47454 22.6314C10.5851 23.7908 11.9558 24.6689 13.4733 25.1929C14.9782 25.631 16.56 25.7386 18.1103 25.5085C19.6607 25.2783 21.143 24.7159 22.4558 23.8596C22.5638 23.7513 22.6992 23.6746 22.8476 23.6375C22.996 23.6004 23.1516 23.6044 23.2979 23.6491C23.5927 23.7446 23.8584 23.9136 24.0698 24.1403C24.2237 24.418 24.2735 24.7415 24.2101 25.0526C24.1699 25.2019 24.0993 25.3413 24.0027 25.4621C23.9061 25.5828 23.7856 25.6823 23.6487 25.7543C21.5334 27.1777 19.0405 27.9353 16.4909 27.9298C15.2307 27.9203 13.9784 27.7312 12.7716 27.3684C11.0369 26.8075 9.45277 25.8588 8.13955 24.5942C6.82633 23.3296 5.8185 21.7824 5.1926 20.0701H0.561026C1.57552 23.8 3.90602 27.0366 7.12175 29.1815C10.3375 31.3265 14.221 32.2347 18.0544 31.7384C21.8879 31.2421 25.412 29.3749 27.9755 26.4817C30.539 23.5886 31.9684 19.8652 31.9996 15.9999C32.0127 15.4143 31.9893 14.8283 31.9294 14.2456H26.0347C25.7954 14.2297 25.5649 14.1497 25.3673 14.0138C25.1697 13.878 25.0123 13.6914 24.9119 13.4736Z" fill="#100A42"/>
<path id="Vector_2" d="M16.0673 22.9996C17.4488 22.9863 18.7955 22.5645 19.9378 21.7873C21.08 21.0101 21.9668 19.9122 22.4863 18.632C23.0058 17.3518 23.1348 15.9465 22.8572 14.5931C22.5795 13.2397 21.9076 11.9988 20.926 11.0265C19.9444 10.0543 18.6971 9.39423 17.3411 9.12954C15.9851 8.86486 14.5811 9.00736 13.3059 9.53909C12.0307 10.0708 10.9414 10.968 10.1752 12.1177C9.40896 13.2673 9.00006 14.618 9 15.9996C8.99996 16.9245 9.18322 17.8403 9.53921 18.694C9.89519 19.5477 10.4168 20.3224 11.074 20.9733C11.7311 21.6241 12.5108 22.1384 13.3678 22.4862C14.2249 22.834 15.1424 23.0084 16.0673 22.9996Z" fill="white"/>
</g>
</g>
</g>
<defs>
<clipPath id="clip0_592_1812">
<rect width="32" height="32" fill="white"/>
</clipPath>
</defs>
</svg>
